<?xml version="1.0" encoding="UTF-8" standalone="no"?>
<!-- Created with Inkscape (http://www.inkscape.org/) -->

<svg
   xmlns:dc="http://purl.org/dc/elements/1.1/"
   xmlns:cc="http://creativecommons.org/ns#"
   xmlns:rdf="http://www.w3.org/1999/02/22-rdf-syntax-ns#"
   xmlns:svg="http://www.w3.org/2000/svg"
   xmlns="http://www.w3.org/2000/svg"
   xmlns:xlink="http://www.w3.org/1999/xlink"
   xmlns:sodipodi="http://sodipodi.sourceforge.net/DTD/sodipodi-0.dtd"
   xmlns:inkscape="http://www.inkscape.org/namespaces/inkscape"
   width="1544"
   height="500"
   id="svg2"
   version="1.1"
   inkscape:version="0.48.3.1 r9886"
   sodipodi:docname="wp-ffpc-banner.svg"
   inkscape:export-filename="/home/peter-molnar/Documents/banner-772x250.png"
   inkscape:export-xdpi="45"
   inkscape:export-ydpi="45">
  <defs
     id="defs4">
    <clipPath
       id="clipPath3018"
       clipPathUnits="userSpaceOnUse">
      <path
         id="path3020"
         d="M 0,180 252,180 252,0 0,0 0,180 z" />
    </clipPath>
    <linearGradient
       y2="-305.1597"
       x2="915.05377"
       y1="-200.32574"
       x1="915.05377"
       gradientTransform="matrix(1.3356998,3.126108e-2,-2.3560347e-2,1.0066687,-311.7837,254.7086)"
       gradientUnits="userSpaceOnUse"
       id="linearGradient3506"
       xlink:href="#linearGradient5427"
       inkscape:collect="always" />
    <linearGradient
       y2="-305.1597"
       x2="915.05377"
       y1="-200.32574"
       x1="915.05377"
       gradientTransform="matrix(1.3356998,3.126108e-2,-2.3560347e-2,1.0066687,-311.7837,254.7086)"
       gradientUnits="userSpaceOnUse"
       id="linearGradient3500"
       xlink:href="#linearGradient5427"
       inkscape:collect="always" />
    <linearGradient
       y2="-305.1597"
       x2="915.05377"
       y1="-200.32574"
       x1="915.05377"
       gradientTransform="matrix(1.1594879,2.7136968e-2,-2.0452153e-2,0.8738641,-449.25364,288.2685)"
       gradientUnits="userSpaceOnUse"
       id="linearGradient3463"
       xlink:href="#linearGradient5427"
       inkscape:collect="always" />
    <linearGradient
       y2="-305.1597"
       x2="915.05377"
       y1="-200.32574"
       x1="915.05377"
       gradientTransform="matrix(1.3356998,3.126108e-2,-2.3560347e-2,1.0066687,-311.7837,254.7086)"
       gradientUnits="userSpaceOnUse"
       id="linearGradient3460"
       xlink:href="#linearGradient5427"
       inkscape:collect="always" />
    <linearGradient
       y2="-305.1597"
       x2="915.05377"
       y1="-200.32574"
       x1="915.05377"
       gradientTransform="matrix(1.3356998,3.126108e-2,-2.3560347e-2,1.0066687,-311.7837,254.7086)"
       gradientUnits="userSpaceOnUse"
       id="linearGradient2438"
       xlink:href="#linearGradient5427"
       inkscape:collect="always" />
    <linearGradient
       y2="-305.1597"
       x2="915.05377"
       y1="-200.32574"
       x1="915.05377"
       gradientTransform="matrix(1.3356998,3.126108e-2,-2.3560347e-2,1.0066687,-311.7837,254.7086)"
       gradientUnits="userSpaceOnUse"
       id="linearGradient2437"
       xlink:href="#linearGradient5427"
       inkscape:collect="always" />
    <linearGradient
       y2="254.98146"
       x2="918.35883"
       y1="221.40863"
       x1="157.88036"
       gradientTransform="matrix(-0.1604951,-0.3399809,3.4732344,-0.1091477,-221.66494,475.61467)"
       gradientUnits="userSpaceOnUse"
       id="linearGradient2465"
       xlink:href="#linearGradient5126"
       inkscape:collect="always" />
    <linearGradient
       y2="358.01419"
       x2="319.61224"
       y1="435.01419"
       x1="194.11983"
       gradientUnits="userSpaceOnUse"
       id="linearGradient2463"
       xlink:href="#linearGradient5520"
       inkscape:collect="always" />
    <linearGradient
       y2="358.01419"
       x2="22.62739"
       y1="434.01419"
       x1="136.70056"
       gradientTransform="translate(687.30779,0)"
       gradientUnits="userSpaceOnUse"
       id="linearGradient2461"
       xlink:href="#linearGradient5520"
       inkscape:collect="always" />
    <linearGradient
       gradientTransform="translate(687.30779,0)"
       y2="358.01419"
       x2="22.62739"
       y1="434.01419"
       x1="136.70056"
       gradientUnits="userSpaceOnUse"
       id="linearGradient5530"
       xlink:href="#linearGradient5520"
       inkscape:collect="always" />
    <linearGradient
       gradientUnits="userSpaceOnUse"
       y2="358.01419"
       x2="319.61224"
       y1="435.01419"
       x1="194.11983"
       id="linearGradient5526"
       xlink:href="#linearGradient5520"
       inkscape:collect="always" />
    <linearGradient
       y2="254.98146"
       x2="918.35883"
       y1="221.40863"
       x1="157.88036"
       gradientTransform="matrix(-0.1604951,-0.3399809,3.4732344,-0.1091477,-221.66494,475.61467)"
       gradientUnits="userSpaceOnUse"
       id="linearGradient5452"
       xlink:href="#linearGradient5126"
       inkscape:collect="always" />
    <linearGradient
       y2="-305.1597"
       x2="915.05377"
       y1="-200.32574"
       x1="915.05377"
       gradientTransform="matrix(1.3360656,0,0,1.0069444,-702.27038,522.52778)"
       gradientUnits="userSpaceOnUse"
       id="linearGradient5447"
       xlink:href="#linearGradient5427"
       inkscape:collect="always" />
    <inkscape:perspective
       sodipodi:type="inkscape:persp3d"
       inkscape:vp_x="0 : 526.18109 : 1"
       inkscape:vp_y="0 : 1000 : 0"
       inkscape:vp_z="744.09448 : 526.18109 : 1"
       inkscape:persp3d-origin="372.04724 : 350.78739 : 1"
       id="perspective2464" />
    <inkscape:perspective
       id="perspective10"
       inkscape:persp3d-origin="372.04724 : 350.78739 : 1"
       inkscape:vp_z="744.09448 : 526.18109 : 1"
       inkscape:vp_y="0 : 1000 : 0"
       inkscape:vp_x="0 : 526.18109 : 1"
       sodipodi:type="inkscape:persp3d" />
    <linearGradient
       id="linearGradient3375">
      <stop
         id="stop3377"
         offset="0"
         style="stop-color:#ffffff;stop-opacity:0.28235295;" />
      <stop
         id="stop3379"
         offset="1"
         style="stop-color:#ffffff;stop-opacity:0;" />
    </linearGradient>
    <linearGradient
       id="linearGradient3383">
      <stop
         id="stop3385"
         offset="0"
         style="stop-color:#ffffff;stop-opacity:0.43921569;" />
      <stop
         style="stop-color:#ffffff;stop-opacity:0;"
         offset="0.51999998"
         id="stop3391" />
      <stop
         id="stop3387"
         offset="1"
         style="stop-color:#ffffff;stop-opacity:0;" />
    </linearGradient>
    <linearGradient
       id="linearGradient5090">
      <stop
         id="stop5092"
         offset="0"
         style="stop-color:#ffffff;stop-opacity:1;" />
      <stop
         id="stop5094"
         offset="1"
         style="stop-color:#ffffff;stop-opacity:0;" />
    </linearGradient>
    <linearGradient
       id="linearGradient5126">
      <stop
         style="stop-color:#ffffff;stop-opacity:0.43921569;"
         offset="0"
         id="stop5128" />
      <stop
         id="stop5130"
         offset="0.3778542"
         style="stop-color:#ffffff;stop-opacity:0;" />
      <stop
         style="stop-color:#ffffff;stop-opacity:0;"
         offset="1"
         id="stop5132" />
    </linearGradient>
    <linearGradient
       id="linearGradient5348">
      <stop
         id="stop5350"
         offset="0"
         style="stop-color:#ffffff;stop-opacity:1;" />
      <stop
         id="stop5352"
         offset="1"
         style="stop-color:#ffffff;stop-opacity:0;" />
    </linearGradient>
    <linearGradient
       id="linearGradient5427"
       inkscape:collect="always">
      <stop
         id="stop5429"
         offset="0"
         style="stop-color:#ffffff;stop-opacity:1;" />
      <stop
         id="stop5431"
         offset="1"
         style="stop-color:#ffffff;stop-opacity:0;" />
    </linearGradient>
    <linearGradient
       id="linearGradient5520"
       inkscape:collect="always">
      <stop
         id="stop5522"
         offset="0"
         style="stop-color:#ffffff;stop-opacity:1;" />
      <stop
         id="stop5524"
         offset="1"
         style="stop-color:#ffffff;stop-opacity:0;" />
    </linearGradient>
  </defs>
  <sodipodi:namedview
     id="base"
     pagecolor="#ffffff"
     bordercolor="#666666"
     borderopacity="1.0"
     inkscape:pageopacity="0.0"
     inkscape:pageshadow="2"
     inkscape:zoom="0.35"
     inkscape:cx="312.60461"
     inkscape:cy="-15.62205"
     inkscape:document-units="px"
     inkscape:current-layer="layer1"
     showgrid="false"
     showguides="true"
     inkscape:guide-bbox="true"
     inkscape:window-width="1331"
     inkscape:window-height="719"
     inkscape:window-x="35"
     inkscape:window-y="458"
     inkscape:window-maximized="1" />
  <metadata
     id="metadata7">
    <rdf:RDF>
      <cc:Work
         rdf:about="">
        <dc:format>image/svg+xml</dc:format>
        <dc:type
           rdf:resource="http://purl.org/dc/dcmitype/StillImage" />
        <dc:title></dc:title>
      </cc:Work>
    </rdf:RDF>
  </metadata>
  <g
     inkscape:label="Layer 1"
     inkscape:groupmode="layer"
     id="layer1"
     transform="translate(0,-552.36218)">
    <g
       transform="matrix(5.6006345,0,0,-5.6006345,274.95926,1203.7446)"
       inkscape:label="wordpress-logo-stacked-cmyk"
       id="g3012">
      <g
         id="g3014">
        <g
           clip-path="url(#clipPath3018)"
           id="g3016">
          <g
             transform="translate(114.4424,30.8389)"
             id="g3022">
            <path
               id="path3024"
               style="fill:#1b73a0;fill-opacity:1;fill-rule:nonzero;stroke:none"
               d="m 0,0 -0.406,0 c -2.087,0 -2.377,0.521 -2.377,3.188 l 0,12.581 2.783,0 c 6.029,0 7.131,-4.406 7.131,-7.827 C 7.131,4.406 6.029,0 0,0 m -24.466,8.059 0,7.71 2.377,0 c 2.609,0 3.769,-1.797 3.769,-3.883 0,-2.031 -1.16,-3.827 -3.769,-3.827 l -2.377,0 z m 24.292,9.45 -10.378,0 0,-1.102 c 3.246,0 3.768,-0.695 3.768,-4.812 l 0,-7.421 c 0,-4.116 -0.522,-4.87 -3.768,-4.87 -2.492,0.347 -4.174,1.681 -6.493,4.232 l -2.667,2.899 c 3.595,0.638 5.508,2.899 5.508,5.451 0,3.187 -2.725,5.623 -7.827,5.623 l -10.203,0 0,-1.102 c 3.246,0 3.767,-0.695 3.767,-4.812 l 0,-7.421 c 0,-4.116 -0.521,-4.87 -3.767,-4.87 l 0,-1.101 11.537,0 0,1.101 c -3.247,0 -3.769,0.754 -3.769,4.87 l 0,2.087 0.986,0 6.435,-8.058 16.871,0 c 8.291,0 11.885,4.405 11.885,9.682 0,5.275 -3.594,9.624 -11.885,9.624"
               inkscape:connector-curvature="0" />
          </g>
          <g
             transform="translate(49.916,36.752)"
             id="g3026">
            <path
               id="path3028"
               style="fill:#1b73a0;fill-opacity:1;fill-rule:nonzero;stroke:none"
               d="m 0,0 4,11.828 c 1.16,3.42 0.639,4.405 -3.072,4.405 l 0,1.161 10.9,0 0,-1.161 c -3.653,0 -4.522,-0.869 -5.972,-5.101 l -6.61,-19.828 -0.753,0 -5.914,18.147 -6.029,-18.147 -0.754,0 -6.435,19.828 c -1.392,4.232 -2.319,5.101 -5.682,5.101 l 0,1.161 12.871,0 0,-1.161 c -3.421,0 -4.349,-0.811 -3.131,-4.405 L -12.697,0 l 5.856,17.394 1.102,0 L 0,0 z"
               inkscape:connector-curvature="0" />
          </g>
          <g
             transform="translate(69.627,47.3037)"
             id="g3030">
            <path
               id="path3032"
               style="fill:#1b73a0;fill-opacity:1;fill-rule:nonzero;stroke:none"
               d="m 0,0 c -5.333,0 -7.189,-4.812 -7.189,-8.58 0,-3.827 1.856,-8.581 7.189,-8.581 5.392,0 7.247,4.754 7.247,8.581 C 7.247,-4.812 5.392,0 0,0 m 0,-19.016 c -6.377,0 -11.595,4.696 -11.595,10.436 0,5.682 5.218,10.378 11.595,10.378 6.377,0 11.596,-4.696 11.596,-10.378 0,-5.74 -5.219,-10.436 -11.596,-10.436"
               inkscape:connector-curvature="0" />
          </g>
          <g
             transform="translate(139.1973,52.0586)"
             id="g3034">
            <path
               id="path3036"
               style="fill:#1b73a0;fill-opacity:1;fill-rule:nonzero;stroke:none"
               d="m 0,0 -3.305,0 0,-10.088 3.305,0 c 3.247,0 4.754,2.261 4.754,4.984 C 4.754,-2.32 3.247,0 0,0 m 1.275,-21.857 0,-1.16 -13.276,0 0,1.16 c 3.885,0 4.58,0.985 4.58,6.783 l 0,9.275 c 0,5.799 -0.695,6.726 -4.58,6.726 l 0,1.16 12.001,0 c 5.972,0 9.276,-3.073 9.276,-7.191 0,-4 -3.304,-7.13 -9.276,-7.13 l -3.305,0 0,-2.84 c 0,-5.798 0.696,-6.783 4.58,-6.783"
               inkscape:connector-curvature="0" />
          </g>
          <g
             transform="translate(157.5762,38.8975)"
             id="g3038">
            <path
               id="path3040"
               style="fill:#3f3c3c;fill-opacity:1;fill-rule:nonzero;stroke:none"
               d="m 0,0 0,7.71 2.377,0 C 4.985,7.71 6.146,5.913 6.146,3.827 6.146,1.797 4.985,0 2.377,0 L 0,0 z M 30.726,-4.406 30.437,-5.45 C 29.915,-7.363 29.276,-8.059 25.16,-8.059 l -0.811,0 c -3.015,0 -3.536,0.696 -3.536,4.812 l 0,2.667 c 4.521,0 4.87,-0.405 4.87,-3.421 l 1.101,0 0,8.639 -1.101,0 c 0,-3.015 -0.349,-3.42 -4.87,-3.42 l 0,6.492 3.188,0 c 4.116,0 4.754,-0.695 5.275,-2.608 l 0.29,-1.101 0.928,0 -0.405,5.449 -17.046,0 0,-1.101 c 3.247,0 3.769,-0.696 3.769,-4.813 l 0,-7.421 c 0,-3.765 -0.444,-4.714 -3.003,-4.849 -2.433,0.372 -4.104,1.699 -6.389,4.212 l -2.667,2.898 c 3.595,0.639 5.509,2.899 5.509,5.451 0,3.188 -2.725,5.623 -7.827,5.623 l -10.205,0 0,-1.101 c 3.248,0 3.769,-0.696 3.769,-4.813 l 0,-7.421 c 0,-4.116 -0.521,-4.87 -3.769,-4.87 l 0,-1.1 11.538,0 0,1.1 C 0.521,-8.755 0,-8.001 0,-3.885 l 0,2.087 0.985,0 6.435,-8.057 23.828,0 0.348,5.449 -0.87,0 z"
               inkscape:connector-curvature="0" />
          </g>
          <g
             transform="translate(200.0713,28.2881)"
             id="g3042">
            <path
               id="path3044"
               style="fill:#3f3c3c;fill-opacity:1;fill-rule:nonzero;stroke:none"
               d="M 0,0 C -2.319,0 -4.349,1.217 -5.218,1.971 -5.508,1.681 -6.029,0.812 -6.146,0 l -1.101,0 0,8 1.159,0 c 0.464,-3.826 3.131,-6.087 6.552,-6.087 1.854,0 3.362,1.043 3.362,2.782 0,1.508 -1.334,2.667 -3.71,3.769 l -3.304,1.565 c -2.32,1.103 -4.059,3.015 -4.059,5.566 0,2.783 2.608,5.16 6.204,5.16 1.913,0 3.535,-0.695 4.522,-1.508 0.29,0.232 0.579,0.871 0.753,1.566 l 1.102,0 0,-6.841 -1.218,0 c -0.406,2.725 -1.913,4.986 -4.985,4.986 -1.624,0 -3.132,-0.928 -3.132,-2.377 0,-1.508 1.218,-2.318 4.001,-3.595 L 3.188,11.421 C 5.972,10.088 7.073,7.942 7.073,6.203 7.073,2.551 3.884,0 0,0"
               inkscape:connector-curvature="0" />
          </g>
          <g
             transform="translate(217.9277,28.2881)"
             id="g3046">
            <path
               id="path3048"
               style="fill:#3f3c3c;fill-opacity:1;fill-rule:nonzero;stroke:none"
               d="M 0,0 C -2.319,0 -4.35,1.217 -5.219,1.971 -5.509,1.681 -6.03,0.812 -6.146,0 l -1.102,0 0,8 1.16,0 c 0.464,-3.826 3.13,-6.087 6.551,-6.087 1.855,0 3.363,1.043 3.363,2.782 0,1.508 -1.334,2.667 -3.711,3.769 l -3.304,1.565 c -2.32,1.103 -4.059,3.015 -4.059,5.566 0,2.783 2.609,5.16 6.204,5.16 1.913,0 3.536,-0.695 4.523,-1.508 0.289,0.232 0.579,0.871 0.752,1.566 l 1.102,0 0,-6.841 -1.218,0 c -0.405,2.725 -1.913,4.986 -4.985,4.986 -1.623,0 -3.131,-0.928 -3.131,-2.377 0,-1.508 1.217,-2.318 4.001,-3.595 L 3.188,11.421 C 5.971,10.088 7.072,7.942 7.072,6.203 7.072,2.551 3.884,0 0,0"
               inkscape:connector-curvature="0" />
          </g>
          <g
             transform="translate(86.6416,109.3911)"
             id="g3050" />
          <g
             transform="translate(149.3848,111.2808)"
             id="g3054" />
          <g
             transform="translate(124.7563,106.1143)"
             id="g3058" />
          <g
             transform="translate(156.9658,127.3608)"
             id="g3062" />
          <g
             transform="translate(124.0986,67.7285)"
             id="g3066" />
        </g>
      </g>
    </g>
    <g
       id="g4488"
       transform="matrix(3.0816399,0,0,3.0816399,0.87902899,591.9215)"
       style="opacity:1">
      <path
         id="path4412"
         d="M 0,5.08 C 3.07,2.07 7.72,0.43 11.56,3.15 c 2.88,3.84 5.85,7.7 6.65,12.6 0.37,4.74 5.75,5.44 7.92,9.02 -0.1,2 -0.12,4 -0.38,5.99 -0.49,0.99 -0.99,1.97 -1.51,2.94 -0.58,-0.44 -1.73,-1.31 -2.31,-1.74 0.57,-1.25 1.14,-2.49 1.71,-3.74 l 0.29,-0.49 C 23.4,26.11 22.64,24.58 21.87,23.06 18.82,22.21 15.74,21.45 12.67,20.66 11.07,20.03 9.47,19.43 7.85,18.83 7.34,16.99 7.06,15.08 7.57,13.2 c 0.93,-0.46 1.86,-0.93 2.79,-1.38 0.55,0.06 1.65,0.2 2.2,0.27 1.13,3.01 2.01,6.26 4.4,8.57 C 16.74,17.85 16.2,15.06 15.29,12.4 14.89,11.19 14.49,9.99 14.08,8.78 10.36,10.43 6.7,12.23 3.31,14.49 2.21,14.53 1.1,14.52 0,14.52 L 0,5.08 z"
         inkscape:connector-curvature="0"
         style="fill:#3f3c3c;fill-opacity:1" />
      <path
         id="path4414"
         d="m 8.56,4.27 c 0.5,0.5 0.5,0.5 0,0 z"
         inkscape:connector-curvature="0"
         style="fill:#c30e0c" />
      <path
         id="path4416"
         d="M 3.22,7.9 C 2.93,6.56 4.8,5 6.09,5.44 6.62,6.83 4.48,8.35 3.22,7.9 z"
         inkscape:connector-curvature="0"
         style="fill:#1b73a0;fill-opacity:1" />
      <path
         id="path4418"
         d="m 10.47,4.88 c 0.5,0.82 1.01,1.64 1.52,2.46 C 10.2,8.27 8.42,9.2 6.61,10.08 7.72,8.23 9.05,6.52 10.47,4.88 z"
         inkscape:connector-curvature="0"
         style="fill:#1b73a0;fill-opacity:1" />
      <path
         id="path4420"
         d="m 3.31,14.49 c 3.39,-2.26 7.05,-4.06 10.77,-5.71 0.41,1.21 0.81,2.41 1.21,3.62 -0.45,-0.55 -1.35,-1.64 -1.79,-2.18 -0.79,0.4 -2.36,1.2 -3.14,1.6 -0.93,0.45 -1.86,0.92 -2.79,1.38 -0.98,0.45 -1.98,0.86 -3,1.24 l -1.26,0.05 z"
         inkscape:connector-curvature="0"
         style="fill:#ffffff" />
      <path
         id="path4422"
         d="m 10.36,11.82 c 0.78,-0.4 2.35,-1.2 3.14,-1.6 0.44,0.54 1.34,1.63 1.79,2.18 0.91,2.66 1.45,5.45 1.67,8.26 -2.39,-2.31 -3.27,-5.56 -4.4,-8.57 -0.55,-0.07 -1.65,-0.21 -2.2,-0.27 z"
         inkscape:connector-curvature="0"
         style="fill:#1b73a0;fill-opacity:1" />
      <path
         id="path4424"
         d="m 0,14.52 c 1.1,0 2.21,0.01 3.31,-0.03 l 1.26,-0.05 c 1.02,-0.38 2.02,-0.79 3,-1.24 -0.51,1.88 -0.23,3.79 0.28,5.63 1.62,0.6 3.22,1.2 4.82,1.83 3.74,2.17 7.28,4.64 10.45,7.56 l 0.52,0 c -0.57,1.25 -1.14,2.49 -1.71,3.74 0.58,0.43 1.73,1.3 2.31,1.74 0.52,-0.97 1.02,-1.95 1.51,-2.94 -1.71,9.98 1.13,19.98 1.77,29.96 0.95,-1.43 1.89,-2.87 2.83,-4.3 3.06,14.73 4.64,29.75 8.09,44.39 0.9,-3.06 1.73,-6.15 2.79,-9.16 2.93,4.1 4.99,8.73 7.94,12.82 3.31,7.21 6.57,14.61 8.11,22.43 -4.23,3.57 -8.1,7.53 -12.22,11.22 -0.84,-9.86 0.07,-19.83 -1.32,-29.65 -2.75,8.21 -3.97,16.87 -7.16,24.95 -3.15,-15.15 -6.36,-30.3 -9.35,-45.49 -0.67,-3.61 -1.54,-7.18 -2.64,-10.68 -0.91,1.54 -1.8,3.1 -2.69,4.66 C 18.53,65.76 16.35,49.37 14.24,33.01 14.02,31.71 13.88,30.18 12.59,29.46 8.55,26.51 4.26,23.9 0.25,20.9 0.17,22.87 0.08,24.84 0.02,26.81 L 0,27.61 0,14.52 z"
         inkscape:connector-curvature="0"
         style="fill:#1b73a0;fill-opacity:1" />
      <path
         id="path4426"
         d="m 12.67,20.66 c 3.07,0.79 6.15,1.55 9.2,2.4 0.77,1.52 1.53,3.05 2.06,4.67 l -0.29,0.49 -0.52,0 C 19.95,25.3 16.41,22.83 12.67,20.66 z"
         inkscape:connector-curvature="0"
         style="fill:#ffffff" />
      <path
         id="path4428"
         d="m 0.25,20.9 c 4.01,3 8.3,5.61 12.34,8.56 1.29,0.72 1.43,2.25 1.65,3.55 2.11,16.36 4.29,32.75 7.66,48.9 0.89,-1.56 1.78,-3.12 2.69,-4.66 1.1,3.5 1.97,7.07 2.64,10.68 2.99,15.19 6.2,30.34 9.35,45.49 3.19,-8.08 4.41,-16.74 7.16,-24.95 1.39,9.82 0.48,19.79 1.32,29.65 4.12,-3.69 7.99,-7.65 12.22,-11.22 -1.54,-7.82 -4.8,-15.22 -8.11,-22.43 C 45.65,94.04 41.27,83.91 37.65,73.5 36.16,68.61 33.1,63.88 33.92,58.58 c 2.11,-5.22 7.84,-6.37 12.49,-8.37 5.34,-2.04 11.17,-1.33 16.76,-1.65 2.41,2.61 5.14,4.97 7.11,7.95 0.75,4.04 0.52,8.2 0.66,12.3 -0.35,2.19 -0.94,4.33 -1.5,6.48 1.26,-0.41 2.52,-0.81 3.78,-1.21 0.04,5.28 -2.75,9.92 -4.02,14.92 -0.36,2.8 -0.22,5.64 -0.22,8.46 3.95,4.68 7.76,9.48 11.65,14.21 0.06,0.59 0.17,1.75 0.23,2.33 -3.28,-3.99 -6.1,-8.38 -9.71,-12.09 -0.38,-0.38 -1.16,-1.16 -1.55,-1.54 0.89,4.97 4.36,8.8 7.01,12.91 -1.37,3.18 -2.8,6.34 -4.36,9.44 -2.76,-0.78 -5.54,-1.49 -8.36,-2.01 1.15,2.81 2.51,5.53 4.11,8.11 3.66,0.8 7.31,1.65 10.98,2.41 -1.45,-3.69 -3.45,-7.21 -4.24,-11.12 0.22,-2.17 1.65,-3.9 2.87,-5.6 1.87,1.58 3.78,3.11 5.72,4.6 0.11,0.09 0.33,0.27 0.44,0.36 0.63,0.73 1.89,2.17 2.52,2.9 -2.19,-0.67 -4.39,-1.32 -6.61,-1.87 2.13,8.27 5.08,16.31 8.23,24.24 4.97,-4.9 8.4,-11.05 12.93,-16.32 -0.29,1.7 -0.59,3.41 -0.87,5.12 3.92,-4.21 7.52,-8.71 10.93,-13.33 -2.08,-2.53 -4.24,-5.57 -2.43,-8.89 1.56,-1.17 3.11,-2.51 5.09,-2.84 2.48,0.77 4.31,2.57 5.88,4.54 -2.54,0.98 -4.65,2.72 -5.84,5.18 2.53,-0.9 4.84,-2.27 7.03,-3.8 0.67,3.38 -2.81,5.42 -4.53,7.84 2.1,-0.99 4.19,-1.98 6.29,-2.96 0.22,6.43 -7.32,9.93 -12.99,9.85 -5.23,3.81 -9.64,8.6 -14.18,13.17 -2.79,2.6 -3.37,7.95 -8.15,7.7 l -54.6,0 c -3.08,-0.27 -6.16,-0.32 -9.25,-0.33 -1.55,-15.2 -2.64,-30.45 -4.2,-45.64 C 19.53,95.09 13.84,87.55 12.17,79.09 12.26,66.69 10.7,54.35 10.93,41.94 10.72,39.58 11.16,36.71 9.28,34.9 6.49,31.88 3.22,29.36 0.02,26.81 0.08,24.84 0.17,22.87 0.25,20.9 z"
         inkscape:connector-curvature="0"
         style="fill:#3f3c3c;fill-opacity:1" />
      <path
         id="path4430"
         d="m 0,27.61 0.02,-0.8 c 3.2,2.55 6.47,5.07 9.26,8.09 1.88,1.81 1.44,4.68 1.65,7.04 -0.23,12.41 1.33,24.75 1.24,37.15 1.67,8.46 7.36,16 6.85,24.94 1.56,15.19 2.65,30.44 4.2,45.64 3.09,0.01 6.17,0.06 9.25,0.33 L 0,150 0,27.61 z"
         inkscape:connector-curvature="0"
         style="fill:#ffffff" />
      <path
         id="path4432"
         d="m 52.03,60.94 c 3.5,-1.16 6.7,-3.07 10.07,-4.54 0.72,0.92 1.44,1.85 2.15,2.79 -1.03,2.44 -1.62,5.04 -2,7.66 l 0.76,0.8 c -3.47,0.56 -6.63,2.24 -10.09,2.82 -3.2,0.25 -6.41,-0.12 -9.61,0.06 -0.79,-3.22 -1.77,-6.39 -2.59,-9.6 3.77,-0.19 7.54,0.32 11.31,0.01 z"
         inkscape:connector-curvature="0"
         style="fill:#1b73a0;fill-opacity:1" />
      <path
         id="path4434"
         d="m 64.25,59.19 0.1,-0.26 c 0.89,0.86 1.78,1.71 2.68,2.57 0.28,2.96 0.51,5.92 0.53,8.89 -1.6,-0.75 -3.32,-1.4 -4.55,-2.74 l -0.76,-0.8 c 0.38,-2.62 0.97,-5.22 2,-7.66 z"
         inkscape:connector-curvature="0"
         style="fill:#ffffff" />
      <path
         id="path4436"
         d="m 39.11,63.35 c 2.26,2.52 1.52,6.05 1.45,9.12 -1.83,-2.67 -2.47,-6 -1.45,-9.12 z"
         inkscape:connector-curvature="0"
         style="fill:#1b73a0;fill-opacity:1" />
      <path
         id="path4438"
         d="m 70.94,68.81 c 0.86,0.62 1.73,1.24 2.59,1.87 -0.1,1.13 -0.21,2.26 -0.31,3.4 -1.26,0.4 -2.52,0.8 -3.78,1.21 0.56,-2.15 1.15,-4.29 1.5,-6.48 z"
         inkscape:connector-curvature="0"
         style="fill:#1b73a0;fill-opacity:1" />
      <path
         id="path4440"
         d="m 42.51,71.17 c 1.6,0.46 -0.19,3.73 -1.57,3.49 -0.55,-1.26 0.49,-2.83 1.57,-3.49 z"
         inkscape:connector-curvature="0"
         style="fill:#1b73a0;fill-opacity:1" />
      <path
         id="path4442"
         d="m 40.57,78.56 c 3.48,-4.07 9.11,-3.62 13.43,-6.06 0.02,2.26 0.59,4.44 1.42,6.53 l -1.34,-0.04 c 0,-0.66 -0.01,-1.99 -0.01,-2.65 -2.49,0.96 -4.05,3.13 -5.4,5.31 2.88,-0.73 5.69,-1.73 8.35,-3.06 1.02,0.55 2.04,1.11 3.06,1.68 -0.69,-1.43 -1.87,-2.73 -1.96,-4.37 -0.22,-0.72 -0.66,-2.14 -0.88,-2.86 2.7,-0.45 5.44,-0.52 8.17,-0.35 -0.69,2.74 -1.86,5.33 -3.28,7.77 0.81,1.46 1.6,2.93 2.23,4.48 -0.12,1.46 -0.37,2.9 -0.61,4.35 -1.97,1.71 -1.92,4.39 -1.95,6.78 -2.91,0.32 -5.8,0.92 -8.73,0.85 -2.56,-3.37 -3.56,-7.64 -5.58,-11.34 -1.32,-3.17 -4.55,-4.75 -6.92,-7.02 z"
         inkscape:connector-curvature="0"
         style="fill:#1b73a0;fill-opacity:1" />
      <path
         id="path4444"
         d="m 55.65,74.72 c -1.54,-0.7 -1.5,-1.25 0.11,-1.63 -0.03,0.41 -0.09,1.22 -0.11,1.63 z"
         inkscape:connector-curvature="0"
         style="fill:#1b73a0;fill-opacity:1" />
      <path
         id="path4446"
         d="m 55.76,73.09 c 0.37,-0.01 1.11,-0.04 1.48,-0.05 0.22,0.72 0.66,2.14 0.88,2.86 l -0.8,0.23 c -0.42,-0.35 -1.26,-1.06 -1.67,-1.41 0.02,-0.41 0.08,-1.22 0.11,-1.63 z"
         inkscape:connector-curvature="0"
         style="fill:#ffffff" />
      <path
         id="path4448"
         d="m 65.41,72.69 c 0.78,0.57 1.56,1.15 2.34,1.74 -1.48,3.39 -3.05,6.78 -3.39,10.51 -0.63,-1.55 -1.42,-3.02 -2.23,-4.48 1.42,-2.44 2.59,-5.03 3.28,-7.77 z"
         inkscape:connector-curvature="0"
         style="fill:#ffffff" />
      <path
         id="path4450"
         d="m 52.46,83.42 c 2.24,-0.59 4.61,-1.28 6.94,-0.93 0.73,1.41 1.21,2.94 1.71,4.45 -3.13,1.09 -6.39,1.76 -9.67,2.16 0.13,-1.91 -0.02,-3.97 1.02,-5.68 z"
         inkscape:connector-curvature="0"
         style="fill:#3f3c3c;fill-opacity:1" />
      <path
         id="path4452"
         d="m 52.96,91.93 c 1.58,-2.41 4.94,-1.66 7.38,-1.87 -2.05,1.57 -4.82,2.59 -7.38,1.87 z"
         inkscape:connector-curvature="0"
         style="fill:#3f3c3c;fill-opacity:1" />
      <path
         id="path4454"
         d="M 61.8,96.07 C 61.83,93.68 61.78,91 63.75,89.29 63.37,91.6 63.16,94.07 61.8,96.07 z"
         inkscape:connector-curvature="0"
         style="fill:#ffffff" />
      <path
         id="path4456"
         d="m 63.84,97.82 c 0.98,-1.38 1.96,-2.76 2.84,-4.19 l -0.1,0.45 c -1.01,4.23 -0.53,8.62 -0.55,12.93 -0.12,2.62 0.7,5.11 1.75,7.47 -3.2,-5.2 -7.3,-9.91 -9.44,-15.7 1.82,-0.41 3.66,-0.72 5.5,-0.96 z"
         inkscape:connector-curvature="0"
         style="fill:#1b73a0;fill-opacity:1" />
      <path
         id="path4458"
         d="m 66.03,107.01 c 0.02,-4.31 -0.46,-8.7 0.55,-12.93 0.69,2.15 1.28,4.35 1.57,6.6 0.14,3.36 -0.09,6.72 0.02,10.08 -0.1,0.93 -0.3,2.79 -0.39,3.72 -1.05,-2.36 -1.87,-4.85 -1.75,-7.47 z"
         inkscape:connector-curvature="0"
         style="fill:#ffffff" />
      <path
         id="path4460"
         d="m 49.49,98.05 c 3.19,2.8 6.61,5.81 8.54,9.62 0.57,3.71 1.8,7.25 2.96,10.81 -4.17,-6.59 -8.38,-13.27 -11.5,-20.43 z"
         inkscape:connector-curvature="0"
         style="fill:#1b73a0;fill-opacity:1" />
      <path
         id="path4462"
         d="m 68.15,100.68 c 0.63,2.46 0.8,5 0.87,7.53 0.3,1.11 0.01,1.96 -0.85,2.55 -0.11,-3.36 0.12,-6.72 -0.02,-10.08 z"
         inkscape:connector-curvature="0"
         style="fill:#1b73a0;fill-opacity:1" />
      <path
         id="path4464"
         d="m 69.6,100.37 c 0.39,0.38 1.17,1.16 1.55,1.54 0.11,1.31 0.33,2.63 1.16,3.71 3.13,4.91 6.9,9.39 11.02,13.49 -1.94,-1.49 -3.85,-3.02 -5.72,-4.6 -1.22,1.7 -2.65,3.43 -2.87,5.6 0.79,3.91 2.79,7.43 4.24,11.12 -3.67,-0.76 -7.32,-1.61 -10.98,-2.41 -1.6,-2.58 -2.96,-5.3 -4.11,-8.11 2.82,0.52 5.6,1.23 8.36,2.01 1.56,-3.1 2.99,-6.26 4.36,-9.44 -2.65,-4.11 -6.12,-7.94 -7.01,-12.91 z"
         inkscape:connector-curvature="0"
         style="fill:#1b73a0;fill-opacity:1" />
      <path
         id="path4466"
         d="m 71.15,101.91 c 3.61,3.71 6.43,8.1 9.71,12.09 0.86,1.21 1.76,2.4 2.67,3.57 0.44,0.69 1.32,2.07 1.76,2.76 l -1.52,-0.86 c -0.11,-0.09 -0.33,-0.27 -0.44,-0.36 -4.12,-4.1 -7.89,-8.58 -11.02,-13.49 -0.83,-1.08 -1.05,-2.4 -1.16,-3.71 z"
         inkscape:connector-curvature="0"
         style="fill:#ffffff" />
      <path
         id="path4468"
         d="m 103.61,109.17 c 2.54,-1.8 5.28,-3.4 8.24,-4.39 2.99,1.61 5.45,4.01 7.84,6.38 l 0.59,-0.95 c -0.2,0.64 -0.62,1.91 -0.82,2.54 0.65,0.85 1.3,1.7 1.96,2.55 0.31,1.33 0.64,2.65 0.97,3.98 -2.1,0.98 -4.19,1.97 -6.29,2.96 1.72,-2.42 5.2,-4.46 4.53,-7.84 -2.19,1.53 -4.5,2.9 -7.03,3.8 1.19,-2.46 3.3,-4.2 5.84,-5.18 -1.57,-1.97 -3.4,-3.77 -5.88,-4.54 -0.24,-0.52 -0.47,-1.05 -0.71,-1.57 -2.12,0.97 -4.23,1.96 -6.31,3.01 0.48,0.35 1.45,1.05 1.93,1.4 -1.81,3.32 0.35,6.36 2.43,8.89 -3.41,4.62 -7.01,9.12 -10.93,13.33 0.28,-1.71 0.58,-3.42 0.87,-5.12 -4.53,5.27 -7.96,11.42 -12.93,16.32 -3.15,-7.93 -6.1,-15.97 -8.23,-24.24 2.22,0.55 4.42,1.2 6.61,1.87 -0.63,-0.73 -1.89,-2.17 -2.52,-2.9 l 1.52,0.86 c 0.51,0.73 1.03,1.47 1.54,2.2 l 1.58,-1.03 c -1.37,-1.61 -3.01,-2.94 -4.88,-3.93 -0.91,-1.17 -1.81,-2.36 -2.67,-3.57 -0.06,-0.58 -0.17,-1.74 -0.23,-2.33 4.96,2.7 10.37,4.42 15.76,6.03 -0.25,-0.72 -0.76,-2.15 -1.01,-2.87 2.3,0.58 4.6,1.14 6.92,1.62 0.78,-0.53 2.35,-1.59 3.14,-2.12 -0.56,-0.13 -1.66,-0.39 -2.21,-0.52 0.84,-1.44 0.69,-3.07 0.38,-4.64 z"
         inkscape:connector-curvature="0"
         style="fill:#1b73a0;fill-opacity:1" />
      <path
         id="path4470"
         d="m 106.54,109.92 c 2.08,-1.05 4.19,-2.04 6.31,-3.01 0.24,0.52 0.47,1.05 0.71,1.57 -1.98,0.33 -3.53,1.67 -5.09,2.84 -0.48,-0.35 -1.45,-1.05 -1.93,-1.4 z"
         inkscape:connector-curvature="0"
         style="fill:#ffffff" />
      <path
         id="path4472"
         d="m 58.03,107.67 c 3.06,2.8 5.39,6.28 7.87,9.58 -2.21,-0.89 -3.93,-0.06 -4.64,2.1 l -0.27,-0.87 c -1.16,-3.56 -2.39,-7.1 -2.96,-10.81 z"
         inkscape:connector-curvature="0"
         style="fill:#ffffff" />
      <path
         id="path4474"
         d="m 103.61,109.17 c 0.31,1.57 0.46,3.2 -0.38,4.64 -0.47,-0.1 -1.4,-0.32 -1.87,-0.42 0.72,-1.42 1.46,-2.83 2.25,-4.22 z"
         inkscape:connector-curvature="0"
         style="fill:#3f3c3c;fill-opacity:1" />
      <path
         id="path4476"
         d="m 114.23,112 c 3.88,-0.85 -0.17,4.52 -1.11,1.26 0.28,-0.32 0.84,-0.95 1.11,-1.26 z"
         inkscape:connector-curvature="0"
         style="fill:#1b73a0;fill-opacity:1" />
      <path
         id="path4478"
         d="m 83.53,117.57 c 1.87,0.99 3.51,2.32 4.88,3.93 l -1.58,1.03 c -0.51,-0.73 -1.03,-1.47 -1.54,-2.2 -0.44,-0.69 -1.32,-2.07 -1.76,-2.76 z"
         inkscape:connector-curvature="0"
         style="fill:#3f3c3c;fill-opacity:1" />
      <path
         id="path4480"
         d="m 112.16,119.87 c 2.5,0.47 3.48,2.94 4.18,5.09 -0.82,0.03 -2.48,0.09 -3.31,0.12 -0.33,-1.73 -0.62,-3.47 -0.87,-5.21 z"
         inkscape:connector-curvature="0"
         style="fill:#1b73a0;fill-opacity:1" />
    </g>
  </g>
</svg>
